<?xml version="1.0" standalone="no"?>
<!DOCTYPE svg PUBLIC "-//W3C//DTD SVG 20010904//EN"
 "http://www.w3.org/TR/2001/REC-SVG-20010904/DTD/svg10.dtd">
<svg version="1.0" xmlns="http://www.w3.org/2000/svg"
 width="512.000000pt" height="512.000000pt" viewBox="0 0 512.000000 512.000000"
 preserveAspectRatio="xMidYMid meet">

<g transform="translate(0.000000,512.000000) scale(0.100000,-0.100000)"
fill="#a855f7" stroke="none">
<path d="M438 5110 c-201 -34 -350 -163 -411 -355 l-22 -70 0 -2125 0 -2125
22 -70 c52 -166 172 -286 338 -338 l70 -22 2125 0 2125 0 70 22 c166 52 286
172 338 338 l22 70 0 2125 0 2125 -22 70 c-51 163 -168 282 -333 338 l-65 22
-2105 1 c-1158 1 -2126 -2 -2152 -6z m2777 -1074 c49 -10 132 -31 185 -48 105
-33 319 -133 364 -171 l29 -24 -83 -159 c-45 -87 -84 -160 -85 -162 -2 -2 -31
15 -65 37 -74 48 -236 113 -352 141 -167 41 -418 45 -595 11 -370 -72 -675
-344 -801 -716 -56 -165 -75 -430 -43 -605 89 -490 449 -837 936 -901 121 -16
362 -6 483 21 115 24 281 89 371 145 l68 42 82 -165 c45 -90 81 -165 79 -166
-2 -2 -19 -14 -38 -28 -95 -71 -340 -169 -500 -202 -217 -43 -524 -46 -715 -6
-642 135 -1110 645 -1186 1291 -16 138 -7 365 20 496 127 617 621 1086 1246
1182 98 15 496 6 600 -13z"/>
</g>
</svg>
